<svg xmlns="http://www.w3.org/2000/svg" width="386.943" height="71.514" viewBox="0 0 386.943 71.514">
  <g id="Incredible_India_Logo" data-name="Incredible India Logo" transform="translate(-142.127 -12909.353)">
    <path id="Incredible_India_Dot" data-name="Incredible India Dot" d="M419.694,12974.1a6.968,6.968,0,1,0-6.966,6.763,6.852,6.852,0,0,0,6.966-6.763" fill="#ed1a25"/>
    <path id="Incredible_India_Logo-2" data-name="Incredible India Logo" d="M502.243,12960.061a6.3,6.3,0,0,1-2.2-4.965,9,9,0,0,1,4.837-8.051c3.224-2,7.674-2.964,13.35-3.032v-7.149a3.6,3.6,0,0,0-1.418-3.224,7.27,7.27,0,0,0-4.32-1.031,9.461,9.461,0,0,0-4.128.839c-1.161.579-1.805,1.161-1.805,1.74a4.562,4.562,0,0,0,1.031,1.158,3.189,3.189,0,0,1,1.031,2.319,3.126,3.126,0,0,1-.839,2.323,2.829,2.829,0,0,1-2.127.9,2.755,2.755,0,0,1-2.258-.966,3.826,3.826,0,0,1-.836-2.642c0-2.06,1.1-3.8,3.224-5.153a15.287,15.287,0,0,1,8.318-2.062c3.614,0,6.129.579,7.547,1.806,1.483,1.158,2.193,3.286,2.193,6.314v16.688a5.889,5.889,0,0,0,.322,2.319c.192.384.579.515,1.161.515a2.136,2.136,0,0,0,1.61-.771,4.6,4.6,0,0,0,.969-1.936h1.161a6.49,6.49,0,0,1-1.87,4.252,5.644,5.644,0,0,1-4.128,1.613,4.257,4.257,0,0,1-3.289-1.223,5.682,5.682,0,0,1-1.418-3.741,9.822,9.822,0,0,1-4.193,3.673,13.67,13.67,0,0,1-6.064,1.353A8.7,8.7,0,0,1,502.243,12960.061Zm6.578-12.437a6.083,6.083,0,0,0-3.224,5.6,5.936,5.936,0,0,0,1.48,4.19,5.347,5.347,0,0,0,4,1.545,7.7,7.7,0,0,0,5.091-1.672,5.354,5.354,0,0,0,2-4.386v-7.212C514.107,12945.691,510.948,12946.333,508.82,12947.624Zm-54.042,9.856a16.19,16.19,0,0,1-3.871-11.018,15.841,15.841,0,0,1,3.871-10.888,12.057,12.057,0,0,1,9.544-4.382,10.069,10.069,0,0,1,5.481,1.415,9.331,9.331,0,0,1,3.546,4.255v-24.612h-4.772v-1.549h1.161c1.548,0,3.094-.062,4.577-.191,1.548-.127,3.1-.322,4.71-.583v49.29h4v1.74c-2.193,0-4.063.065-5.546.192a31.04,31.04,0,0,0-4,.582v-5.416a10.363,10.363,0,0,1-3.871,4.124,10.244,10.244,0,0,1-5.351,1.483A12.1,12.1,0,0,1,454.778,12957.48Zm4.385-21.519c-1.1,2.06-1.679,5.537-1.679,10.438q0,7.726,1.74,10.82a6.094,6.094,0,0,0,5.742,3.094,7.774,7.774,0,0,0,5.738-2.573,7.682,7.682,0,0,0,2.645-5.674v-10.243a8.556,8.556,0,0,0-2.58-6.249,8.007,8.007,0,0,0-6-2.707A5.82,5.82,0,0,0,459.163,12935.962Zm-85.193,21.711a14.281,14.281,0,0,1-4.128-10.374,16.773,16.773,0,0,1,4.193-11.471,13.233,13.233,0,0,1,10.319-4.7c3.806,0,6.77,1.1,8.962,3.354s3.484,5.475,3.806,9.665H376.68v2.189c0,5.025.644,8.568,1.87,10.565s3.416,3.028,6.513,3.028a10.212,10.212,0,0,0,6.643-2.186,11.073,11.073,0,0,0,3.741-6.126h1.61a12.722,12.722,0,0,1-4.32,7.732,13.332,13.332,0,0,1-8.578,2.576A13.627,13.627,0,0,1,373.97,12957.673Zm5.094-22.875q-1.84,2.42-2.127,7.153h13.737v-.774c0-3.087-.517-5.349-1.483-6.7s-2.58-2.062-4.837-2.062A6.2,6.2,0,0,0,379.064,12934.8Zm-101.442,22.683a16.19,16.19,0,0,1-3.871-11.018,15.841,15.841,0,0,1,3.871-10.888,12.061,12.061,0,0,1,9.544-4.382,10.069,10.069,0,0,1,5.481,1.415,9.292,9.292,0,0,1,3.546,4.255v-24.612h-4.772v-1.549h1.161c1.548,0,3.094-.062,4.58-.191,1.545-.127,3.094-.322,4.707-.583v49.29h4v1.74c-2.193,0-4.063.065-5.546.192a31.04,31.04,0,0,0-4,.582v-5.416a10.341,10.341,0,0,1-3.871,4.124,10.227,10.227,0,0,1-5.351,1.483A12.107,12.107,0,0,1,277.622,12957.48Zm4.385-21.519c-1.1,2.06-1.679,5.537-1.679,10.438q0,7.726,1.74,10.82a6.1,6.1,0,0,0,5.742,3.094,7.786,7.786,0,0,0,5.742-2.573,7.678,7.678,0,0,0,2.641-5.674v-10.243a8.543,8.543,0,0,0-2.58-6.249,7.9,7.9,0,0,0-6-2.707A5.825,5.825,0,0,0,282.007,12935.962Zm-33.987,21.711a14.28,14.28,0,0,1-4.128-10.374,16.773,16.773,0,0,1,4.193-11.471,13.233,13.233,0,0,1,10.319-4.7c3.806,0,6.77,1.1,8.965,3.354s3.481,5.475,3.8,9.665H250.729v2.189c0,5.025.644,8.568,1.87,10.565s3.416,3.028,6.513,3.028a10.212,10.212,0,0,0,6.643-2.186,11.055,11.055,0,0,0,3.741-6.126h1.61a12.722,12.722,0,0,1-4.32,7.732,13.332,13.332,0,0,1-8.578,2.576A13.632,13.632,0,0,1,248.02,12957.673Zm5.029-22.875q-1.835,2.42-2.127,7.153h13.737v-.774c0-3.087-.517-5.349-1.483-6.7s-2.58-2.062-4.837-2.062A6.2,6.2,0,0,0,253.049,12934.8Zm-53.655,22.81a15.1,15.1,0,0,1-4-10.761,15.807,15.807,0,0,1,4.258-11.271,14.112,14.112,0,0,1,10.767-4.513,12.461,12.461,0,0,1,7.8,2.323,6.887,6.887,0,0,1,3.032,5.731,3.917,3.917,0,0,1-.966,2.769,3.41,3.41,0,0,1-2.645,1.031,2.927,2.927,0,0,1-2.258-.966,3.408,3.408,0,0,1-.9-2.385,4.14,4.14,0,0,1,1.1-2.642c.709-.9,1.1-1.418,1.1-1.675,0-.706-.579-1.354-1.805-1.864a11.079,11.079,0,0,0-4.385-.777,7,7,0,0,0-6.447,3.285c-1.357,2.2-2,5.735-2,10.565,0,4.9.644,8.377,1.87,10.5s3.289,3.155,6.06,3.155a9.976,9.976,0,0,0,6.516-2.187,10.977,10.977,0,0,0,3.868-6.122h1.74a13.177,13.177,0,0,1-4.382,7.407,12.694,12.694,0,0,1-8.129,2.645A13.353,13.353,0,0,1,199.394,12957.607Zm136.848,2.642a9.969,9.969,0,0,1-3.676-4.252v5.67c-1.353-.191-2.837-.39-4.385-.455s-3.159-.188-4.964-.254v-1.61h4.193v-47.162h-4v-1.415c1.548-.068,3.1-.2,4.645-.322s3.224-.26,4.964-.521v26.867a9.991,9.991,0,0,1,3.549-4.313,10.245,10.245,0,0,1,5.416-1.356,11.86,11.86,0,0,1,9.287,4.382,15.869,15.869,0,0,1,3.8,10.826,16.188,16.188,0,0,1-3.8,10.956,12.085,12.085,0,0,1-9.548,4.378A10.112,10.112,0,0,1,336.241,12960.249Zm-1.031-24.674a11.442,11.442,0,0,0-2.319,7.149v8.507a8.645,8.645,0,0,0,2.384,6.314,7.963,7.963,0,0,0,5.934,2.515,5.837,5.837,0,0,0,5.611-3.094c1.1-2.065,1.613-5.674,1.613-10.892,0-5.087-.517-8.568-1.613-10.5s-2.967-2.84-5.677-2.84A7.618,7.618,0,0,0,335.21,12935.575Zm76.615,25.771a324.917,324.917,0,0,0-3.419-39.622c-.322-2.255-.449-3.611-.449-4a12.807,12.807,0,0,1,1.1-5.862,3.946,3.946,0,0,1,7.352,0,12.807,12.807,0,0,1,1.1,5.862c0,.452-.13,1.743-.452,4a328.512,328.512,0,0,0-3.419,39.622Zm72.939-.322v-1.74h4.964v-25.836h-4.642v-1.61H486.5c1.548,0,3.032-.064,4.58-.2,1.483-.127,2.967-.318,4.255-.517v28.158H499.6v1.74Zm-46.886,0v-1.74h4.128v-20.293a6.861,6.861,0,0,0-1.1-4.255,4.151,4.151,0,0,0-3.419-1.421c-2.384,0-4.385,1.229-6.125,3.679a15.189,15.189,0,0,0-2.58,9.018v13.207h3.871v1.74h-13.48v-1.675h3.936v-25.836h-4v-1.61h1.357c1.483,0,2.9-.064,4.32-.2,1.353-.127,2.71-.318,3.868-.517l.065,8.506a13.972,13.972,0,0,1,4.32-6.375,10.278,10.278,0,0,1,6.516-2.131,7.4,7.4,0,0,1,8.126,8.119v20.039h3.8v1.74Zm-83.062,0v-1.74h5.351v-47.032h-5.481v-1.48c1.936-.068,3.871-.13,5.742-.26s3.741-.322,5.611-.515v49.287h5.543v1.74Zm-47.657,0v-1.74h4.964v-25.836h-4.642v-1.61H308.9c1.548,0,3.029-.064,4.577-.2,1.483-.127,2.9-.318,4.258-.517v28.158h4.255v1.74Zm-85.385-1.74h4.834v-25.836H221.9v-1.61q2.806,0,5.416-.2c1.744-.127,3.354-.26,4.9-.517v7.479a17.366,17.366,0,0,1,3.933-5.479,6.915,6.915,0,0,1,4.642-1.8,4.178,4.178,0,0,1,3.1,1.028,3.743,3.743,0,0,1,1.1,2.9,3.057,3.057,0,0,1-5.286,2.127,3.174,3.174,0,0,1-.9-2.189,2.853,2.853,0,0,1,.065-.709,2.065,2.065,0,0,0,.065-.514c0-.2,0-.325-.065-.388s-.13-.13-.192-.13c-1.291,0-2.71,1.224-4.128,3.607a14.249,14.249,0,0,0-2.193,7.343v14.82H237.7v1.74H221.774v-1.675Zm-39.469,1.74v-1.74h4.125v-20.293a6.884,6.884,0,0,0-1.093-4.255,4.245,4.245,0,0,0-3.419-1.421c-2.388,0-4.385,1.229-6.129,3.679a15.189,15.189,0,0,0-2.58,9.018v13.207h3.871v1.74H163.539v-1.675h3.933v-25.836h-4v-1.61h1.353c1.483,0,2.9-.064,4.32-.2,1.357-.127,2.71-.318,3.871-.517l.065,8.506a13.947,13.947,0,0,1,4.32-6.375,10.263,10.263,0,0,1,6.513-2.131,8.215,8.215,0,0,1,6,2.131,8.093,8.093,0,0,1,2.127,5.988v20.039h3.806v1.74Zm-40.178,0v-1.871h6.06v-45.422h-6.06v-1.8H161.8v1.8H155.54v45.422H161.8v1.871Z" fill="#fff"/>
  </g>
</svg>
